Coordinates
version=1
nRows=13
nColumns=40
inDegrees=yes

Units are S.I. units (second, meters, Newtons, ...)
Angles are in degrees.

endheader
time	pelvis_tilt	pelvis_list	pelvis_rotation	pelvis_tx	pelvis_ty	pelvis_tz	hip_flexion_r	hip_adduction_r	hip_rotation_r	knee_angle_r	knee_angle_r_beta	ankle_angle_r	subtalar_angle_r	mtp_angle_r	hip_flexion_l	hip_adduction_l	hip_rotation_l	knee_angle_l	knee_angle_l_beta	ankle_angle_l	subtalar_angle_l	mtp_angle_l	lumbar_extension	lumbar_bending	lumbar_rotation	arm_flex_r	arm_add_r	arm_rot_r	elbow_flex_r	pro_sup_r	wrist_flex_r	wrist_dev_r	arm_flex_l	arm_add_l	arm_rot_l	elbow_flex_l	pro_sup_l	wrist_flex_l	wrist_dev_l
     11.88500000	     -6.50854053	     -3.19654499	      2.76291139	      1.07296845	      0.91167338	      0.46146520	     -5.26671113	     -2.98700598	    -17.55504928	     21.66317668	     21.66317668	     15.02037171	      5.50443556	    -13.13815193	     32.00372236	     -3.49526674	     -2.33021979	     27.22612565	     27.22612565	      4.97928021	    -16.89402508	      9.34952865	     -5.36527344	      5.52785469	      4.10300302	     37.47138740	    -16.00759588	    -10.38451833	    101.18497932	     44.28173447	      0.00000000	      0.00000000	    -15.71391008	     -5.64815148	      9.47996939	     21.57585651	     44.25700814	      0.00000000	      0.00000000
     11.89657143	     -6.39785178	     -3.08955267	      2.71874752	      1.07412957	      0.91368383	      0.45793960	     -4.75701885	     -3.73782301	    -16.91796256	     23.67911146	     23.67911146	     11.67586185	      3.30139898	    -19.49846996	     31.18773888	     -3.17941888	     -2.30600446	     27.43906029	     27.43906029	      6.40781463	    -16.86165041	     11.02676248	     -5.43094929	      5.65661443	      4.72717382	     34.71083456	    -16.54257309	    -11.83750839	    102.20920137	     44.34332162	      0.00000000	      0.00000000	    -14.44150046	     -5.83130417	      9.49908411	     22.45423007	     44.35085894	      0.00000000	      0.00000000
     11.90814286	     -6.26216245	     -2.90699821	      2.62851616	      1.07518773	      0.91573083	      0.45451303	     -3.81322741	     -4.78670096	    -16.48833285	     26.76443007	     26.76443007	     10.05365092	      2.42365894	    -20.40426878	     30.10345873	     -2.84650539	     -2.54437364	     27.18675306	     27.18675306	      7.12090128	    -16.73763592	     10.85556951	     -5.49472889	      5.68649197	      4.37588333	     32.87714541	    -16.35966389	    -11.75262280	    101.32291190	     44.37012054	      0.00000000	      0.00000000	    -13.44603536	     -5.81351277	      9.47651527	     22.92131001	     44.38490617	      0.00000000	      0.00000000
     11.91971429	     -6.15681833	     -2.78610884	      2.53487967	      1.07601416	      0.91763490	      0.45128442	     -2.62087296	     -5.73707369	    -15.84620796	     30.07563482	     30.07563482	      8.03837729	      1.08426636	    -21.32438877	     29.07591753	     -2.57575525	     -2.73535802	     26.92947580	     26.92947580	      7.72629025	    -16.64212395	     10.71085519	     -5.54564651	      5.76847402	      4.22302859	     30.79752079	    -16.29926554	    -11.83753188	    100.10106596	     44.41075557	      0.00000000	      0.00000000	    -12.33747249	     -5.89755928	      9.34733034	     23.63445218	     44.43662824	      0.00000000	      0.00000000
     11.93128571	     -6.13800897	     -2.86184336	      2.45104549	      1.07660436	      0.91932829	      0.44845990	     -1.21621739	     -6.18727021	    -14.55128812	     33.20377765	     33.20377765	      4.81422659	     -2.16308364	    -24.08355412	     28.15031511	     -2.50772170	     -2.81375978	     26.61670797	     26.61670797	      8.33506396	    -16.52615046	     10.59312906	     -5.48995214	      6.00619113	      4.24814670	     28.76149000	    -16.12998843	    -12.81851597	     98.13068062	     44.53270778	      0.00000000	      0.00000000	    -11.37089268	     -6.09618709	      8.61284226	     25.33886007	     44.62747900	      0.00000000	      0.00000000
     11.94285714	     -6.09592657	     -2.79791953	      2.34125461	      1.07698690	      0.92082848	      0.44570989	      0.45649699	     -6.98837360	    -13.71474844	     36.91736706	     36.91736706	      2.42445734	     -3.75583134	    -24.10968607	     27.17310901	     -2.32600045	     -3.01547623	     26.25015736	     26.25015736	      8.86193157	    -16.33223690	     10.34992348	     -5.50847022	      6.08172911	      4.17070391	     26.63328995	    -16.19025687	    -12.90702738	     96.24604886	     44.59651835	      0.00000000	      0.00000000	    -10.13302459	     -6.22917091	      8.30462937	     26.25998597	     44.71160473	      0.00000000	      0.00000000
     11.95442857	     -6.02652437	     -2.72285163	      2.22181808	      1.07716885	      0.92217669	      0.44321017	      2.25057512	     -7.66375138	    -12.65684917	     40.66367352	     40.66367352	     -0.09276695	     -5.64260600	    -23.64619854	     26.20161662	     -2.15479655	     -3.24143610	     25.92207441	     25.92207441	      9.36960942	    -16.13710933	     10.06771819	     -5.59545496	      6.10305942	      4.13295109	     24.50834713	    -16.08334178	    -13.06965430	     94.03871930	     44.67008275	      0.00000000	      0.00000000	     -8.77119118	     -6.47701220	      7.96282965	     27.31115330	     44.79677529	      0.00000000	      0.00000000
     11.96600000	     -5.99975749	     -2.70371946	      2.09523020	      1.07705026	      0.92327924	      0.44101261	      4.24805680	     -8.11966695	    -11.45810074	     44.40845616	     44.40845616	     -2.59496949	     -7.78847100	    -22.60893556	     25.32232418	     -2.06438212	     -3.47151492	     25.62112342	     25.62112342	      9.82577858	    -15.93844689	      9.74612575	     -5.64455655	      6.17070135	      4.18040756	     22.42934361	    -15.98959534	    -13.35823476	     91.32670849	     44.76353150	      0.00000000	      0.00000000	     -7.33044659	     -6.77387478	      7.54993065	     28.55266085	     44.89088804	      0.00000000	      0.00000000
     11.97757143	     -5.92464279	     -2.87902845	      1.98127933	      1.07671019	      0.92431902	      0.43913295	      6.33364388	     -8.19009588	    -10.21329099	     48.18423784	     48.18423784	     -4.17803019	     -9.31994304	    -18.75064851	     24.45923413	     -2.21372876	     -3.65115744	     25.38758290	     25.38758290	     10.10224682	    -15.67438032	      8.74317549	     -5.69953766	      6.38946408	      3.40522524	     21.74795298	    -14.82938022	    -14.10784684	     85.82795653	     44.98633169	      0.00000000	      0.00000000	     -6.76166304	     -7.09687509	      5.80959089	     31.38368369	     45.19570306	      0.00000000	      0.00000000
     11.98914286	     -5.88271079	     -2.78235253	      1.81116412	      1.07614777	      0.92511960	      0.43729804	      8.46109014	     -8.59677316	     -9.18471093	     51.67830498	     51.67830498	     -6.25941089	    -10.88519156	    -17.49163586	     23.59881276	     -2.06362446	     -3.88028075	     25.10713660	     25.10713660	     10.56438200	    -15.53085229	      8.50494843	     -5.87351230	      6.35691022	      3.48963226	     19.57197822	    -14.83091522	    -13.91022906	     83.61529664	     45.04574569	      0.00000000	      0.00000000	     -4.98184263	     -7.45324676	      5.44938821	     32.42344025	     45.27760437	      0.00000000	      0.00000000
     12.00071429	     -5.80206912	     -3.07094435	      1.62504631	      1.07535321	      0.92594613	      0.43596329	     10.69707679	     -8.30464695	     -8.03887283	     55.15010590	     55.15010590	     -6.87844213	    -11.94638478	    -12.48435319	     22.83286345	     -2.39133719	     -4.08960446	     25.01120898	     25.01120898	     10.98983928	    -15.24881651	      7.82868651	     -6.00960663	      6.68331521	      3.61743525	     18.37523738	    -14.72411007	    -14.46380919	     78.11083886	     45.24640681	      0.00000000	      0.00000000	     -3.49475582	     -7.74731163	      4.57242741	     34.35652525	     45.43492887	      0.00000000	      0.00000000
     12.01228571	     -5.82491715	     -2.87757863	      1.40761418	      1.07434793	      0.92649838	      0.43449948	     13.00442165	     -8.63561820	     -7.11227666	     58.27316770	     58.27316770	     -8.10981948	    -13.19502516	    -11.20619506	     22.03034364	     -2.16675627	     -4.39754380	     24.65366389	     24.65366389	     11.36407427	    -15.05989762	      7.62681061	     -6.16381088	      6.51208710	      3.51632744	     16.40116113	    -14.31164518	    -14.21637548	     75.93569493	     45.30196212	      0.00000000	      0.00000000	     -1.71493300	     -8.21679213	      4.26364559	     35.40654594	     45.50421624	      0.00000000	      0.00000000
     12.02385714	     -5.80653219	     -3.04523705	      1.13657355	      1.07322975	      0.92715179	      0.43352789	     15.46794828	     -8.42225555	     -6.28282227	     61.50103123	     61.50103123	     -6.75182803	    -13.10681927	     -3.55670102	     21.24760128	     -2.39282264	     -4.71965069	     24.38161239	     24.38161239	     11.65470856	    -14.80945034	      6.69982405	     -6.22064149	      6.63840727	      2.82124237	     16.61509642	    -13.44881476	    -14.43351141	     68.25515527	     45.56178977	      0.00000000	      0.00000000	     -0.75384230	     -8.79450032	      3.40714491	     37.92957462	     45.65154552	      0.00000000	      0.00000000
